<svg width="1000" height="1000" xmlns="http://www.w3.org/2000/svg"><g id="ground"><rect x="0" y="0" width="32" height="32" style="fill: #373; stroke-width: 0.1; stroke: rgb(0,0,0);"></rect><rect x="32" y="0" width="32" height="32" style="fill: #373; stroke-width: 0.1; stroke: rgb(0,0,0);"></rect><rect x="64" y="0" width="32" height="32" style="fill: #373; stroke-width: 0.1; stroke: rgb(0,0,0);"></rect><rect x="96" y="0" width="32" height="32" style="fill: #373; stroke-width: 0.1; stroke: rgb(0,0,0);"></rect><rect x="128" y="0" width="32" height="32" style="fill: #373; stroke-width: 0.1; stroke: rgb(0,0,0);"></rect><rect x="160" y="0" width="32" height="32" style="fill: #373; stroke-width: 0.1; stroke: rgb(0,0,0);"></rect><rect x="192" y="0" width="32" height="32" style="fill: #373; stroke-width: 0.1; stroke: rgb(0,0,0);"></rect><rect x="224" y="0" width="32" height="32" style="fill: #373; stroke-width: 0.1; stroke: rgb(0,0,0);"></rect><rect x="256" y="0" width="32" height="32" style="fill: #373; stroke-width: 0.1; stroke: rgb(0,0,0);"></rect><rect x="288" y="0" width="32" height="32" style="fill: #373; stroke-width: 0.1; stroke: rgb(0,0,0);"></rect><rect x="320" y="0" width="32" height="32" style="fill: #373; stroke-width: 0.1; stroke: rgb(0,0,0);"></rect><rect x="352" y="0" width="32" height="32" style="fill: #373; stroke-width: 0.1; stroke: rgb(0,0,0);"></rect><rect x="384" y="0" width="32" height="32" style="fill: #373; stroke-width: 0.1; stroke: rgb(0,0,0);"></rect><rect x="416" y="0" width="32" height="32" style="fill: #373; stroke-width: 0.1; stroke: rgb(0,0,0);"></rect><rect x="448" y="0" width="32" height="32" style="fill: #373; stroke-width: 0.1; stroke: rgb(0,0,0);"></rect><rect x="480" y="0" width="32" height="32" style="fill: #373; stroke-width: 0.1; stroke: rgb(0,0,0);"></rect><rect x="512" y="0" width="32" height="32" style="fill: #373; stroke-width: 0.1; stroke: rgb(0,0,0);"></rect><rect x="544" y="0" width="32" height="32" style="fill: #373; stroke-width: 0.1; stroke: rgb(0,0,0);"></rect><rect x="576" y="0" width="32" height="32" style="fill: #373; stroke-width: 0.1; stroke: rgb(0,0,0);"></rect><rect x="608" y="0" width="32" height="32" style="fill: #373; stroke-width: 0.1; stroke: rgb(0,0,0);"></rect><rect x="0" y="32" width="32" height="32" style="fill: #373; stroke-width: 0.1; stroke: rgb(0,0,0);"></rect><rect x="32" y="32" width="32" height="32" style="fill: #373; stroke-width: 0.1; stroke: rgb(0,0,0);"></rect><rect x="64" y="32" width="32" height="32" style="fill: #373; stroke-width: 0.1; stroke: rgb(0,0,0);"></rect><rect x="96" y="32" width="32" height="32" style="fill: #373; stroke-width: 0.1; stroke: rgb(0,0,0);"></rect><rect x="128" y="32" width="32" height="32" style="fill: #373; stroke-width: 0.1; stroke: rgb(0,0,0);"></rect><rect x="160" y="32" width="32" height="32" style="fill: #373; stroke-width: 0.1; stroke: rgb(0,0,0);"></rect><rect x="192" y="32" width="32" height="32" style="fill: #373; stroke-width: 0.1; stroke: rgb(0,0,0);"></rect><rect x="224" y="32" width="32" height="32" style="fill: #373; stroke-width: 0.1; stroke: rgb(0,0,0);"></rect><rect x="256" y="32" width="32" height="32" style="fill: #373; stroke-width: 0.1; stroke: rgb(0,0,0);"></rect><rect x="288" y="32" width="32" height="32" style="fill: #373; stroke-width: 0.1; stroke: rgb(0,0,0);"></rect><rect x="320" y="32" width="32" height="32" style="fill: #373; stroke-width: 0.1; stroke: rgb(0,0,0);"></rect><rect x="352" y="32" width="32" height="32" style="fill: #373; stroke-width: 0.1; stroke: rgb(0,0,0);"></rect><rect x="384" y="32" width="32" height="32" style="fill: #373; stroke-width: 0.1; stroke: rgb(0,0,0);"></rect><rect x="416" y="32" width="32" height="32" style="fill: #373; stroke-width: 0.1; stroke: rgb(0,0,0);"></rect><rect x="448" y="32" width="32" height="32" style="fill: #373; stroke-width: 0.1; stroke: rgb(0,0,0);"></rect><rect x="480" y="32" width="32" height="32" style="fill: #373; stroke-width: 0.1; stroke: rgb(0,0,0);"></rect><rect x="512" y="32" width="32" height="32" style="fill: #373; stroke-width: 0.1; stroke: rgb(0,0,0);"></rect><rect x="544" y="32" width="32" height="32" style="fill: #373; stroke-width: 0.1; stroke: rgb(0,0,0);"></rect><rect x="576" y="32" width="32" height="32" style="fill: #373; stroke-width: 0.1; stroke: rgb(0,0,0);"></rect><rect x="608" y="32" width="32" height="32" style="fill: #373; stroke-width: 0.1; stroke: rgb(0,0,0);"></rect><rect x="0" y="64" width="32" height="32" style="fill: #373; stroke-width: 0.1; stroke: rgb(0,0,0);"></rect><rect x="32" y="64" width="32" height="32" style="fill: #373; stroke-width: 0.1; stroke: rgb(0,0,0);"></rect><rect x="64" y="64" width="32" height="32" style="fill: #373; stroke-width: 0.1; stroke: rgb(0,0,0);"></rect><rect x="96" y="64" width="32" height="32" style="fill: #fc7; stroke-width: 0.1; stroke: rgb(0,0,0);"></rect><rect x="128" y="64" width="32" height="32" style="fill: #fc7; stroke-width: 0.1; stroke: rgb(0,0,0);"></rect><rect x="160" y="64" width="32" height="32" style="fill: #fc7; stroke-width: 0.1; stroke: rgb(0,0,0);"></rect><rect x="192" y="64" width="32" height="32" style="fill: #373; stroke-width: 0.1; stroke: rgb(0,0,0);"></rect><rect x="224" y="64" width="32" height="32" style="fill: #fc7; stroke-width: 0.1; stroke: rgb(0,0,0);"></rect><rect x="256" y="64" width="32" height="32" style="fill: #373; stroke-width: 0.1; stroke: rgb(0,0,0);"></rect><rect x="288" y="64" width="32" height="32" style="fill: #fc7; stroke-width: 0.1; stroke: rgb(0,0,0);"></rect><rect x="320" y="64" width="32" height="32" style="fill: #373; stroke-width: 0.1; stroke: rgb(0,0,0);"></rect><rect x="352" y="64" width="32" height="32" style="fill: #373; stroke-width: 0.1; stroke: rgb(0,0,0);"></rect><rect x="384" y="64" width="32" height="32" style="fill: #373; stroke-width: 0.1; stroke: rgb(0,0,0);"></rect><rect x="416" y="64" width="32" height="32" style="fill: #fc7; stroke-width: 0.1; stroke: rgb(0,0,0);"></rect><rect x="448" y="64" width="32" height="32" style="fill: #fc7; stroke-width: 0.1; stroke: rgb(0,0,0);"></rect><rect x="480" y="64" width="32" height="32" style="fill: #fc7; stroke-width: 0.1; stroke: rgb(0,0,0);"></rect><rect x="512" y="64" width="32" height="32" style="fill: #373; stroke-width: 0.1; stroke: rgb(0,0,0);"></rect><rect x="544" y="64" width="32" height="32" style="fill: #373; stroke-width: 0.1; stroke: rgb(0,0,0);"></rect><rect x="576" y="64" width="32" height="32" style="fill: #373; stroke-width: 0.1; stroke: rgb(0,0,0);"></rect><rect x="608" y="64" width="32" height="32" style="fill: #373; stroke-width: 0.1; stroke: rgb(0,0,0);"></rect><rect x="0" y="96" width="32" height="32" style="fill: #373; stroke-width: 0.1; stroke: rgb(0,0,0);"></rect><rect x="32" y="96" width="32" height="32" style="fill: #373; stroke-width: 0.1; stroke: rgb(0,0,0);"></rect><rect x="64" y="96" width="32" height="32" style="fill: #373; stroke-width: 0.1; stroke: rgb(0,0,0);"></rect><rect x="96" y="96" width="32" height="32" style="fill: #373; stroke-width: 0.1; stroke: rgb(0,0,0);"></rect><rect x="128" y="96" width="32" height="32" style="fill: #fc7; stroke-width: 0.1; stroke: rgb(0,0,0);"></rect><rect x="160" y="96" width="32" height="32" style="fill: #373; stroke-width: 0.1; stroke: rgb(0,0,0);"></rect><rect x="192" y="96" width="32" height="32" style="fill: #373; stroke-width: 0.1; stroke: rgb(0,0,0);"></rect><rect x="224" y="96" width="32" height="32" style="fill: #fc7; stroke-width: 0.1; stroke: rgb(0,0,0);"></rect><rect x="256" y="96" width="32" height="32" style="fill: #373; stroke-width: 0.1; stroke: rgb(0,0,0);"></rect><rect x="288" y="96" width="32" height="32" style="fill: #fc7; stroke-width: 0.1; stroke: rgb(0,0,0);"></rect><rect x="320" y="96" width="32" height="32" style="fill: #373; stroke-width: 0.1; stroke: rgb(0,0,0);"></rect><rect x="352" y="96" width="32" height="32" style="fill: #373; stroke-width: 0.1; stroke: rgb(0,0,0);"></rect><rect x="384" y="96" width="32" height="32" style="fill: #373; stroke-width: 0.1; stroke: rgb(0,0,0);"></rect><rect x="416" y="96" width="32" height="32" style="fill: #fc7; stroke-width: 0.1; stroke: rgb(0,0,0);"></rect><rect x="448" y="96" width="32" height="32" style="fill: #373; stroke-width: 0.1; stroke: rgb(0,0,0);"></rect><rect x="480" y="96" width="32" height="32" style="fill: #373; stroke-width: 0.1; stroke: rgb(0,0,0);"></rect><rect x="512" y="96" width="32" height="32" style="fill: #373; stroke-width: 0.1; stroke: rgb(0,0,0);"></rect><rect x="544" y="96" width="32" height="32" style="fill: #373; stroke-width: 0.1; stroke: rgb(0,0,0);"></rect><rect x="576" y="96" width="32" height="32" style="fill: #373; stroke-width: 0.1; stroke: rgb(0,0,0);"></rect><rect x="608" y="96" width="32" height="32" style="fill: #373; stroke-width: 0.1; stroke: rgb(0,0,0);"></rect><rect x="0" y="128" width="32" height="32" style="fill: #373; stroke-width: 0.1; stroke: rgb(0,0,0);"></rect><rect x="32" y="128" width="32" height="32" style="fill: #373; stroke-width: 0.1; stroke: rgb(0,0,0);"></rect><rect x="64" y="128" width="32" height="32" style="fill: #373; stroke-width: 0.1; stroke: rgb(0,0,0);"></rect><rect x="96" y="128" width="32" height="32" style="fill: #373; stroke-width: 0.1; stroke: rgb(0,0,0);"></rect><rect x="128" y="128" width="32" height="32" style="fill: #fc7; stroke-width: 0.1; stroke: rgb(0,0,0);"></rect><rect x="160" y="128" width="32" height="32" style="fill: #373; stroke-width: 0.1; stroke: rgb(0,0,0);"></rect><rect x="192" y="128" width="32" height="32" style="fill: #373; stroke-width: 0.1; stroke: rgb(0,0,0);"></rect><rect x="224" y="128" width="32" height="32" style="fill: #fc7; stroke-width: 0.1; stroke: rgb(0,0,0);"></rect><rect x="256" y="128" width="32" height="32" style="fill: #373; stroke-width: 0.1; stroke: rgb(0,0,0);"></rect><rect x="288" y="128" width="32" height="32" style="fill: #fc7; stroke-width: 0.1; stroke: rgb(0,0,0);"></rect><rect x="320" y="128" width="32" height="32" style="fill: #373; stroke-width: 0.1; stroke: rgb(0,0,0);"></rect><rect x="352" y="128" width="32" height="32" style="fill: #373; stroke-width: 0.1; stroke: rgb(0,0,0);"></rect><rect x="384" y="128" width="32" height="32" style="fill: #373; stroke-width: 0.1; stroke: rgb(0,0,0);"></rect><rect x="416" y="128" width="32" height="32" style="fill: #fc7; stroke-width: 0.1; stroke: rgb(0,0,0);"></rect><rect x="448" y="128" width="32" height="32" style="fill: #fc7; stroke-width: 0.1; stroke: rgb(0,0,0);"></rect><rect x="480" y="128" width="32" height="32" style="fill: #fc7; stroke-width: 0.1; stroke: rgb(0,0,0);"></rect><rect x="512" y="128" width="32" height="32" style="fill: #373; stroke-width: 0.1; stroke: rgb(0,0,0);"></rect><rect x="544" y="128" width="32" height="32" style="fill: #373; stroke-width: 0.1; stroke: rgb(0,0,0);"></rect><rect x="576" y="128" width="32" height="32" style="fill: #373; stroke-width: 0.1; stroke: rgb(0,0,0);"></rect><rect x="608" y="128" width="32" height="32" style="fill: #373; stroke-width: 0.1; stroke: rgb(0,0,0);"></rect><rect x="0" y="160" width="32" height="32" style="fill: #373; stroke-width: 0.1; stroke: rgb(0,0,0);"></rect><rect x="32" y="160" width="32" height="32" style="fill: #373; stroke-width: 0.1; stroke: rgb(0,0,0);"></rect><rect x="64" y="160" width="32" height="32" style="fill: #373; stroke-width: 0.1; stroke: rgb(0,0,0);"></rect><rect x="96" y="160" width="32" height="32" style="fill: #373; stroke-width: 0.1; stroke: rgb(0,0,0);"></rect><rect x="128" y="160" width="32" height="32" style="fill: #fc7; stroke-width: 0.1; stroke: rgb(0,0,0);"></rect><rect x="160" y="160" width="32" height="32" style="fill: #373; stroke-width: 0.1; stroke: rgb(0,0,0);"></rect><rect x="192" y="160" width="32" height="32" style="fill: #373; stroke-width: 0.1; stroke: rgb(0,0,0);"></rect><rect x="224" y="160" width="32" height="32" style="fill: #fc7; stroke-width: 0.1; stroke: rgb(0,0,0);"></rect><rect x="256" y="160" width="32" height="32" style="fill: #373; stroke-width: 0.1; stroke: rgb(0,0,0);"></rect><rect x="288" y="160" width="32" height="32" style="fill: #fc7; stroke-width: 0.1; stroke: rgb(0,0,0);"></rect><rect x="320" y="160" width="32" height="32" style="fill: #373; stroke-width: 0.1; stroke: rgb(0,0,0);"></rect><rect x="352" y="160" width="32" height="32" style="fill: #373; stroke-width: 0.1; stroke: rgb(0,0,0);"></rect><rect x="384" y="160" width="32" height="32" style="fill: #373; stroke-width: 0.1; stroke: rgb(0,0,0);"></rect><rect x="416" y="160" width="32" height="32" style="fill: #fc7; stroke-width: 0.1; stroke: rgb(0,0,0);"></rect><rect x="448" y="160" width="32" height="32" style="fill: #373; stroke-width: 0.1; stroke: rgb(0,0,0);"></rect><rect x="480" y="160" width="32" height="32" style="fill: #373; stroke-width: 0.1; stroke: rgb(0,0,0);"></rect><rect x="512" y="160" width="32" height="32" style="fill: #373; stroke-width: 0.1; stroke: rgb(0,0,0);"></rect><rect x="544" y="160" width="32" height="32" style="fill: #373; stroke-width: 0.1; stroke: rgb(0,0,0);"></rect><rect x="576" y="160" width="32" height="32" style="fill: #373; stroke-width: 0.1; stroke: rgb(0,0,0);"></rect><rect x="608" y="160" width="32" height="32" style="fill: #373; stroke-width: 0.1; stroke: rgb(0,0,0);"></rect><rect x="0" y="192" width="32" height="32" style="fill: #373; stroke-width: 0.1; stroke: rgb(0,0,0);"></rect><rect x="32" y="192" width="32" height="32" style="fill: #373; stroke-width: 0.1; stroke: rgb(0,0,0);"></rect><rect x="64" y="192" width="32" height="32" style="fill: #373; stroke-width: 0.1; stroke: rgb(0,0,0);"></rect><rect x="96" y="192" width="32" height="32" style="fill: #373; stroke-width: 0.1; stroke: rgb(0,0,0);"></rect><rect x="128" y="192" width="32" height="32" style="fill: #fc7; stroke-width: 0.1; stroke: rgb(0,0,0);"></rect><rect x="160" y="192" width="32" height="32" style="fill: #373; stroke-width: 0.1; stroke: rgb(0,0,0);"></rect><rect x="192" y="192" width="32" height="32" style="fill: #373; stroke-width: 0.1; stroke: rgb(0,0,0);"></rect><rect x="224" y="192" width="32" height="32" style="fill: #fc7; stroke-width: 0.1; stroke: rgb(0,0,0);"></rect><rect x="256" y="192" width="32" height="32" style="fill: #373; stroke-width: 0.1; stroke: rgb(0,0,0);"></rect><rect x="288" y="192" width="32" height="32" style="fill: #fc7; stroke-width: 0.1; stroke: rgb(0,0,0);"></rect><rect x="320" y="192" width="32" height="32" style="fill: #fc7; stroke-width: 0.1; stroke: rgb(0,0,0);"></rect><rect x="352" y="192" width="32" height="32" style="fill: #fc7; stroke-width: 0.1; stroke: rgb(0,0,0);"></rect><rect x="384" y="192" width="32" height="32" style="fill: #373; stroke-width: 0.1; stroke: rgb(0,0,0);"></rect><rect x="416" y="192" width="32" height="32" style="fill: #fc7; stroke-width: 0.1; stroke: rgb(0,0,0);"></rect><rect x="448" y="192" width="32" height="32" style="fill: #fc7; stroke-width: 0.1; stroke: rgb(0,0,0);"></rect><rect x="480" y="192" width="32" height="32" style="fill: #fc7; stroke-width: 0.1; stroke: rgb(0,0,0);"></rect><rect x="512" y="192" width="32" height="32" style="fill: #373; stroke-width: 0.1; stroke: rgb(0,0,0);"></rect><rect x="544" y="192" width="32" height="32" style="fill: #373; stroke-width: 0.1; stroke: rgb(0,0,0);"></rect><rect x="576" y="192" width="32" height="32" style="fill: #373; stroke-width: 0.1; stroke: rgb(0,0,0);"></rect><rect x="608" y="192" width="32" height="32" style="fill: #373; stroke-width: 0.1; stroke: rgb(0,0,0);"></rect><rect x="0" y="224" width="32" height="32" style="fill: #373; stroke-width: 0.1; stroke: rgb(0,0,0);"></rect><rect x="32" y="224" width="32" height="32" style="fill: #373; stroke-width: 0.1; stroke: rgb(0,0,0);"></rect><rect x="64" y="224" width="32" height="32" style="fill: #373; stroke-width: 0.1; stroke: rgb(0,0,0);"></rect><rect x="96" y="224" width="32" height="32" style="fill: #373; stroke-width: 0.1; stroke: rgb(0,0,0);"></rect><rect x="128" y="224" width="32" height="32" style="fill: #373; stroke-width: 0.1; stroke: rgb(0,0,0);"></rect><rect x="160" y="224" width="32" height="32" style="fill: #373; stroke-width: 0.1; stroke: rgb(0,0,0);"></rect><rect x="192" y="224" width="32" height="32" style="fill: #373; stroke-width: 0.1; stroke: rgb(0,0,0);"></rect><rect x="224" y="224" width="32" height="32" style="fill: #373; stroke-width: 0.1; stroke: rgb(0,0,0);"></rect><rect x="256" y="224" width="32" height="32" style="fill: #373; stroke-width: 0.1; stroke: rgb(0,0,0);"></rect><rect x="288" y="224" width="32" height="32" style="fill: #373; stroke-width: 0.1; stroke: rgb(0,0,0);"></rect><rect x="320" y="224" width="32" height="32" style="fill: #373; stroke-width: 0.1; stroke: rgb(0,0,0);"></rect><rect x="352" y="224" width="32" height="32" style="fill: #373; stroke-width: 0.1; stroke: rgb(0,0,0);"></rect><rect x="384" y="224" width="32" height="32" style="fill: #373; stroke-width: 0.1; stroke: rgb(0,0,0);"></rect><rect x="416" y="224" width="32" height="32" style="fill: #373; stroke-width: 0.1; stroke: rgb(0,0,0);"></rect><rect x="448" y="224" width="32" height="32" style="fill: #373; stroke-width: 0.1; stroke: rgb(0,0,0);"></rect><rect x="480" y="224" width="32" height="32" style="fill: #373; stroke-width: 0.1; stroke: rgb(0,0,0);"></rect><rect x="512" y="224" width="32" height="32" style="fill: #373; stroke-width: 0.1; stroke: rgb(0,0,0);"></rect><rect x="544" y="224" width="32" height="32" style="fill: #373; stroke-width: 0.1; stroke: rgb(0,0,0);"></rect><rect x="576" y="224" width="32" height="32" style="fill: #373; stroke-width: 0.1; stroke: rgb(0,0,0);"></rect><rect x="608" y="224" width="32" height="32" style="fill: #373; stroke-width: 0.1; stroke: rgb(0,0,0);"></rect><rect x="0" y="256" width="32" height="32" style="fill: #373; stroke-width: 0.1; stroke: rgb(0,0,0);"></rect><rect x="32" y="256" width="32" height="32" style="fill: #373; stroke-width: 0.1; stroke: rgb(0,0,0);"></rect><rect x="64" y="256" width="32" height="32" style="fill: #373; stroke-width: 0.1; stroke: rgb(0,0,0);"></rect><rect x="96" y="256" width="32" height="32" style="fill: #373; stroke-width: 0.1; stroke: rgb(0,0,0);"></rect><rect x="128" y="256" width="32" height="32" style="fill: #373; stroke-width: 0.1; stroke: rgb(0,0,0);"></rect><rect x="160" y="256" width="32" height="32" style="fill: #373; stroke-width: 0.1; stroke: rgb(0,0,0);"></rect><rect x="192" y="256" width="32" height="32" style="fill: #373; stroke-width: 0.1; stroke: rgb(0,0,0);"></rect><rect x="224" y="256" width="32" height="32" style="fill: #373; stroke-width: 0.1; stroke: rgb(0,0,0);"></rect><rect x="256" y="256" width="32" height="32" style="fill: #373; stroke-width: 0.1; stroke: rgb(0,0,0);"></rect><rect x="288" y="256" width="32" height="32" style="fill: #373; stroke-width: 0.1; stroke: rgb(0,0,0);"></rect><rect x="320" y="256" width="32" height="32" style="fill: #373; stroke-width: 0.1; stroke: rgb(0,0,0);"></rect><rect x="352" y="256" width="32" height="32" style="fill: #373; stroke-width: 0.1; stroke: rgb(0,0,0);"></rect><rect x="384" y="256" width="32" height="32" style="fill: #373; stroke-width: 0.1; stroke: rgb(0,0,0);"></rect><rect x="416" y="256" width="32" height="32" style="fill: #373; stroke-width: 0.1; stroke: rgb(0,0,0);"></rect><rect x="448" y="256" width="32" height="32" style="fill: #373; stroke-width: 0.1; stroke: rgb(0,0,0);"></rect><rect x="480" y="256" width="32" height="32" style="fill: #373; stroke-width: 0.1; stroke: rgb(0,0,0);"></rect><rect x="512" y="256" width="32" height="32" style="fill: #373; stroke-width: 0.1; stroke: rgb(0,0,0);"></rect><rect x="544" y="256" width="32" height="32" style="fill: #373; stroke-width: 0.1; stroke: rgb(0,0,0);"></rect><rect x="576" y="256" width="32" height="32" style="fill: #373; stroke-width: 0.1; stroke: rgb(0,0,0);"></rect><rect x="608" y="256" width="32" height="32" style="fill: #373; stroke-width: 0.1; stroke: rgb(0,0,0);"></rect><rect x="0" y="288" width="32" height="32" style="fill: #373; stroke-width: 0.1; stroke: rgb(0,0,0);"></rect><rect x="32" y="288" width="32" height="32" style="fill: #373; stroke-width: 0.1; stroke: rgb(0,0,0);"></rect><rect x="64" y="288" width="32" height="32" style="fill: #373; stroke-width: 0.1; stroke: rgb(0,0,0);"></rect><rect x="96" y="288" width="32" height="32" style="fill: #fc7; stroke-width: 0.1; stroke: rgb(0,0,0);"></rect><rect x="128" y="288" width="32" height="32" style="fill: #373; stroke-width: 0.1; stroke: rgb(0,0,0);"></rect><rect x="160" y="288" width="32" height="32" style="fill: #373; stroke-width: 0.1; stroke: rgb(0,0,0);"></rect><rect x="192" y="288" width="32" height="32" style="fill: #373; stroke-width: 0.1; stroke: rgb(0,0,0);"></rect><rect x="224" y="288" width="32" height="32" style="fill: #fc7; stroke-width: 0.1; stroke: rgb(0,0,0);"></rect><rect x="256" y="288" width="32" height="32" style="fill: #373; stroke-width: 0.1; stroke: rgb(0,0,0);"></rect><rect x="288" y="288" width="32" height="32" style="fill: #fc7; stroke-width: 0.1; stroke: rgb(0,0,0);"></rect><rect x="320" y="288" width="32" height="32" style="fill: #fc7; stroke-width: 0.1; stroke: rgb(0,0,0);"></rect><rect x="352" y="288" width="32" height="32" style="fill: #fc7; stroke-width: 0.1; stroke: rgb(0,0,0);"></rect><rect x="384" y="288" width="32" height="32" style="fill: #373; stroke-width: 0.1; stroke: rgb(0,0,0);"></rect><rect x="416" y="288" width="32" height="32" style="fill: #fc7; stroke-width: 0.1; stroke: rgb(0,0,0);"></rect><rect x="448" y="288" width="32" height="32" style="fill: #fc7; stroke-width: 0.1; stroke: rgb(0,0,0);"></rect><rect x="480" y="288" width="32" height="32" style="fill: #fc7; stroke-width: 0.1; stroke: rgb(0,0,0);"></rect><rect x="512" y="288" width="32" height="32" style="fill: #373; stroke-width: 0.1; stroke: rgb(0,0,0);"></rect><rect x="544" y="288" width="32" height="32" style="fill: #373; stroke-width: 0.1; stroke: rgb(0,0,0);"></rect><rect x="576" y="288" width="32" height="32" style="fill: #373; stroke-width: 0.1; stroke: rgb(0,0,0);"></rect><rect x="608" y="288" width="32" height="32" style="fill: #373; stroke-width: 0.1; stroke: rgb(0,0,0);"></rect><rect x="0" y="320" width="32" height="32" style="fill: #373; stroke-width: 0.1; stroke: rgb(0,0,0);"></rect><rect x="32" y="320" width="32" height="32" style="fill: #373; stroke-width: 0.1; stroke: rgb(0,0,0);"></rect><rect x="64" y="320" width="32" height="32" style="fill: #373; stroke-width: 0.1; stroke: rgb(0,0,0);"></rect><rect x="96" y="320" width="32" height="32" style="fill: #fc7; stroke-width: 0.1; stroke: rgb(0,0,0);"></rect><rect x="128" y="320" width="32" height="32" style="fill: #fc7; stroke-width: 0.1; stroke: rgb(0,0,0);"></rect><rect x="160" y="320" width="32" height="32" style="fill: #373; stroke-width: 0.1; stroke: rgb(0,0,0);"></rect><rect x="192" y="320" width="32" height="32" style="fill: #fc7; stroke-width: 0.1; stroke: rgb(0,0,0);"></rect><rect x="224" y="320" width="32" height="32" style="fill: #fc7; stroke-width: 0.1; stroke: rgb(0,0,0);"></rect><rect x="256" y="320" width="32" height="32" style="fill: #373; stroke-width: 0.1; stroke: rgb(0,0,0);"></rect><rect x="288" y="320" width="32" height="32" style="fill: #fc7; stroke-width: 0.1; stroke: rgb(0,0,0);"></rect><rect x="320" y="320" width="32" height="32" style="fill: #373; stroke-width: 0.1; stroke: rgb(0,0,0);"></rect><rect x="352" y="320" width="32" height="32" style="fill: #fc7; stroke-width: 0.1; stroke: rgb(0,0,0);"></rect><rect x="384" y="320" width="32" height="32" style="fill: #373; stroke-width: 0.1; stroke: rgb(0,0,0);"></rect><rect x="416" y="320" width="32" height="32" style="fill: #fc7; stroke-width: 0.1; stroke: rgb(0,0,0);"></rect><rect x="448" y="320" width="32" height="32" style="fill: #373; stroke-width: 0.1; stroke: rgb(0,0,0);"></rect><rect x="480" y="320" width="32" height="32" style="fill: #fc7; stroke-width: 0.1; stroke: rgb(0,0,0);"></rect><rect x="512" y="320" width="32" height="32" style="fill: #373; stroke-width: 0.1; stroke: rgb(0,0,0);"></rect><rect x="544" y="320" width="32" height="32" style="fill: #373; stroke-width: 0.1; stroke: rgb(0,0,0);"></rect><rect x="576" y="320" width="32" height="32" style="fill: #373; stroke-width: 0.1; stroke: rgb(0,0,0);"></rect><rect x="608" y="320" width="32" height="32" style="fill: #373; stroke-width: 0.1; stroke: rgb(0,0,0);"></rect><rect x="0" y="352" width="32" height="32" style="fill: #373; stroke-width: 0.1; stroke: rgb(0,0,0);"></rect><rect x="32" y="352" width="32" height="32" style="fill: #373; stroke-width: 0.1; stroke: rgb(0,0,0);"></rect><rect x="64" y="352" width="32" height="32" style="fill: #373; stroke-width: 0.1; stroke: rgb(0,0,0);"></rect><rect x="96" y="352" width="32" height="32" style="fill: #fc7; stroke-width: 0.1; stroke: rgb(0,0,0);"></rect><rect x="128" y="352" width="32" height="32" style="fill: #373; stroke-width: 0.1; stroke: rgb(0,0,0);"></rect><rect x="160" y="352" width="32" height="32" style="fill: #fc7; stroke-width: 0.1; stroke: rgb(0,0,0);"></rect><rect x="192" y="352" width="32" height="32" style="fill: #373; stroke-width: 0.1; stroke: rgb(0,0,0);"></rect><rect x="224" y="352" width="32" height="32" style="fill: #fc7; stroke-width: 0.1; stroke: rgb(0,0,0);"></rect><rect x="256" y="352" width="32" height="32" style="fill: #373; stroke-width: 0.1; stroke: rgb(0,0,0);"></rect><rect x="288" y="352" width="32" height="32" style="fill: #fc7; stroke-width: 0.1; stroke: rgb(0,0,0);"></rect><rect x="320" y="352" width="32" height="32" style="fill: #fc7; stroke-width: 0.1; stroke: rgb(0,0,0);"></rect><rect x="352" y="352" width="32" height="32" style="fill: #fc7; stroke-width: 0.1; stroke: rgb(0,0,0);"></rect><rect x="384" y="352" width="32" height="32" style="fill: #373; stroke-width: 0.1; stroke: rgb(0,0,0);"></rect><rect x="416" y="352" width="32" height="32" style="fill: #fc7; stroke-width: 0.1; stroke: rgb(0,0,0);"></rect><rect x="448" y="352" width="32" height="32" style="fill: #fc7; stroke-width: 0.1; stroke: rgb(0,0,0);"></rect><rect x="480" y="352" width="32" height="32" style="fill: #fc7; stroke-width: 0.1; stroke: rgb(0,0,0);"></rect><rect x="512" y="352" width="32" height="32" style="fill: #373; stroke-width: 0.1; stroke: rgb(0,0,0);"></rect><rect x="544" y="352" width="32" height="32" style="fill: #373; stroke-width: 0.1; stroke: rgb(0,0,0);"></rect><rect x="576" y="352" width="32" height="32" style="fill: #373; stroke-width: 0.1; stroke: rgb(0,0,0);"></rect><rect x="608" y="352" width="32" height="32" style="fill: #373; stroke-width: 0.1; stroke: rgb(0,0,0);"></rect><rect x="0" y="384" width="32" height="32" style="fill: #373; stroke-width: 0.1; stroke: rgb(0,0,0);"></rect><rect x="32" y="384" width="32" height="32" style="fill: #373; stroke-width: 0.1; stroke: rgb(0,0,0);"></rect><rect x="64" y="384" width="32" height="32" style="fill: #373; stroke-width: 0.1; stroke: rgb(0,0,0);"></rect><rect x="96" y="384" width="32" height="32" style="fill: #fc7; stroke-width: 0.1; stroke: rgb(0,0,0);"></rect><rect x="128" y="384" width="32" height="32" style="fill: #373; stroke-width: 0.1; stroke: rgb(0,0,0);"></rect><rect x="160" y="384" width="32" height="32" style="fill: #373; stroke-width: 0.1; stroke: rgb(0,0,0);"></rect><rect x="192" y="384" width="32" height="32" style="fill: #373; stroke-width: 0.1; stroke: rgb(0,0,0);"></rect><rect x="224" y="384" width="32" height="32" style="fill: #fc7; stroke-width: 0.1; stroke: rgb(0,0,0);"></rect><rect x="256" y="384" width="32" height="32" style="fill: #373; stroke-width: 0.1; stroke: rgb(0,0,0);"></rect><rect x="288" y="384" width="32" height="32" style="fill: #fc7; stroke-width: 0.1; stroke: rgb(0,0,0);"></rect><rect x="320" y="384" width="32" height="32" style="fill: #373; stroke-width: 0.1; stroke: rgb(0,0,0);"></rect><rect x="352" y="384" width="32" height="32" style="fill: #fc7; stroke-width: 0.1; stroke: rgb(0,0,0);"></rect><rect x="384" y="384" width="32" height="32" style="fill: #373; stroke-width: 0.1; stroke: rgb(0,0,0);"></rect><rect x="416" y="384" width="32" height="32" style="fill: #fc7; stroke-width: 0.1; stroke: rgb(0,0,0);"></rect><rect x="448" y="384" width="32" height="32" style="fill: #373; stroke-width: 0.1; stroke: rgb(0,0,0);"></rect><rect x="480" y="384" width="32" height="32" style="fill: #373; stroke-width: 0.1; stroke: rgb(0,0,0);"></rect><rect x="512" y="384" width="32" height="32" style="fill: #373; stroke-width: 0.1; stroke: rgb(0,0,0);"></rect><rect x="544" y="384" width="32" height="32" style="fill: #373; stroke-width: 0.1; stroke: rgb(0,0,0);"></rect><rect x="576" y="384" width="32" height="32" style="fill: #373; stroke-width: 0.1; stroke: rgb(0,0,0);"></rect><rect x="608" y="384" width="32" height="32" style="fill: #373; stroke-width: 0.1; stroke: rgb(0,0,0);"></rect><rect x="0" y="416" width="32" height="32" style="fill: #373; stroke-width: 0.1; stroke: rgb(0,0,0);"></rect><rect x="32" y="416" width="32" height="32" style="fill: #373; stroke-width: 0.1; stroke: rgb(0,0,0);"></rect><rect x="64" y="416" width="32" height="32" style="fill: #373; stroke-width: 0.1; stroke: rgb(0,0,0);"></rect><rect x="96" y="416" width="32" height="32" style="fill: #fc7; stroke-width: 0.1; stroke: rgb(0,0,0);"></rect><rect x="128" y="416" width="32" height="32" style="fill: #373; stroke-width: 0.1; stroke: rgb(0,0,0);"></rect><rect x="160" y="416" width="32" height="32" style="fill: #373; stroke-width: 0.1; stroke: rgb(0,0,0);"></rect><rect x="192" y="416" width="32" height="32" style="fill: #373; stroke-width: 0.1; stroke: rgb(0,0,0);"></rect><rect x="224" y="416" width="32" height="32" style="fill: #fc7; stroke-width: 0.1; stroke: rgb(0,0,0);"></rect><rect x="256" y="416" width="32" height="32" style="fill: #373; stroke-width: 0.1; stroke: rgb(0,0,0);"></rect><rect x="288" y="416" width="32" height="32" style="fill: #fc7; stroke-width: 0.1; stroke: rgb(0,0,0);"></rect><rect x="320" y="416" width="32" height="32" style="fill: #373; stroke-width: 0.1; stroke: rgb(0,0,0);"></rect><rect x="352" y="416" width="32" height="32" style="fill: #fc7; stroke-width: 0.1; stroke: rgb(0,0,0);"></rect><rect x="384" y="416" width="32" height="32" style="fill: #373; stroke-width: 0.1; stroke: rgb(0,0,0);"></rect><rect x="416" y="416" width="32" height="32" style="fill: #fc7; stroke-width: 0.1; stroke: rgb(0,0,0);"></rect><rect x="448" y="416" width="32" height="32" style="fill: #373; stroke-width: 0.1; stroke: rgb(0,0,0);"></rect><rect x="480" y="416" width="32" height="32" style="fill: #373; stroke-width: 0.1; stroke: rgb(0,0,0);"></rect><rect x="512" y="416" width="32" height="32" style="fill: #373; stroke-width: 0.1; stroke: rgb(0,0,0);"></rect><rect x="544" y="416" width="32" height="32" style="fill: #373; stroke-width: 0.1; stroke: rgb(0,0,0);"></rect><rect x="576" y="416" width="32" height="32" style="fill: #373; stroke-width: 0.1; stroke: rgb(0,0,0);"></rect><rect x="608" y="416" width="32" height="32" style="fill: #373; stroke-width: 0.1; stroke: rgb(0,0,0);"></rect><rect x="0" y="448" width="32" height="32" style="fill: #373; stroke-width: 0.1; stroke: rgb(0,0,0);"></rect><rect x="32" y="448" width="32" height="32" style="fill: #373; stroke-width: 0.1; stroke: rgb(0,0,0);"></rect><rect x="64" y="448" width="32" height="32" style="fill: #373; stroke-width: 0.1; stroke: rgb(0,0,0);"></rect><rect x="96" y="448" width="32" height="32" style="fill: #373; stroke-width: 0.1; stroke: rgb(0,0,0);"></rect><rect x="128" y="448" width="32" height="32" style="fill: #373; stroke-width: 0.1; stroke: rgb(0,0,0);"></rect><rect x="160" y="448" width="32" height="32" style="fill: #373; stroke-width: 0.1; stroke: rgb(0,0,0);"></rect><rect x="192" y="448" width="32" height="32" style="fill: #373; stroke-width: 0.1; stroke: rgb(0,0,0);"></rect><rect x="224" y="448" width="32" height="32" style="fill: #373; stroke-width: 0.1; stroke: rgb(0,0,0);"></rect><rect x="256" y="448" width="32" height="32" style="fill: #373; stroke-width: 0.1; stroke: rgb(0,0,0);"></rect><rect x="288" y="448" width="32" height="32" style="fill: #373; stroke-width: 0.1; stroke: rgb(0,0,0);"></rect><rect x="320" y="448" width="32" height="32" style="fill: #373; stroke-width: 0.1; stroke: rgb(0,0,0);"></rect><rect x="352" y="448" width="32" height="32" style="fill: #373; stroke-width: 0.1; stroke: rgb(0,0,0);"></rect><rect x="384" y="448" width="32" height="32" style="fill: #373; stroke-width: 0.1; stroke: rgb(0,0,0);"></rect><rect x="416" y="448" width="32" height="32" style="fill: #373; stroke-width: 0.1; stroke: rgb(0,0,0);"></rect><rect x="448" y="448" width="32" height="32" style="fill: #373; stroke-width: 0.1; stroke: rgb(0,0,0);"></rect><rect x="480" y="448" width="32" height="32" style="fill: #373; stroke-width: 0.1; stroke: rgb(0,0,0);"></rect><rect x="512" y="448" width="32" height="32" style="fill: #373; stroke-width: 0.1; stroke: rgb(0,0,0);"></rect><rect x="544" y="448" width="32" height="32" style="fill: #373; stroke-width: 0.1; stroke: rgb(0,0,0);"></rect><rect x="576" y="448" width="32" height="32" style="fill: #373; stroke-width: 0.1; stroke: rgb(0,0,0);"></rect><rect x="608" y="448" width="32" height="32" style="fill: #373; stroke-width: 0.1; stroke: rgb(0,0,0);"></rect></g></svg>