<svg width="800" height="800" xmlns="http://www.w3.org/2000/svg"><style>
  .tile {
    fill: #eee;
    stroke: #a9a9a9;
  }
  .tile:hover {
    fill: #ff00af !important;
  }
</style><g id="map"><g id="ground"><g id="tile" transform="matrix(1, 0, 0, 1, 0, 0)"><rect class="tile" z-index="1" x="0" y="0" width="80" height="80" style="fill: #373; stroke-width: 0.1; stroke: rgb(255,255,255);"></rect><polygon z-index="1" points="
          80
          0
          90
          10
          90
          90
          80
          80
        " style="fill: #373; stroke-width: 0.1; stroke: rgb(255,255,255);"></polygon></g><g id="tile" transform="matrix(1, 0, 0, 1, 0, 80)"><rect class="tile" z-index="2" x="0" y="80" width="80" height="80" style="fill: #373; stroke-width: 0.1; stroke: rgb(255,255,255);"></rect><polygon z-index="1" points="
          80
          0
          90
          10
          90
          90
          80
          80
        " style="fill: #373; stroke-width: 0.1; stroke: rgb(255,255,255);"></polygon></g><g id="tile" transform="matrix(1, 0, 0, 1, 0, 160)"><rect class="tile" z-index="3" x="0" y="160" width="80" height="80" style="fill: #373; stroke-width: 0.1; stroke: rgb(255,255,255);"></rect><polygon z-index="1" points="
          80
          0
          90
          10
          90
          90
          80
          80
        " style="fill: #373; stroke-width: 0.1; stroke: rgb(255,255,255);"></polygon></g><g id="tile" transform="matrix(1, 0, 0, 1, 0, 240)"><rect class="tile" z-index="4" x="0" y="240" width="80" height="80" style="fill: #373; stroke-width: 0.1; stroke: rgb(255,255,255);"></rect><polygon z-index="1" points="
          80
          0
          90
          10
          90
          90
          80
          80
        " style="fill: #373; stroke-width: 0.1; stroke: rgb(255,255,255);"></polygon></g></g></g></svg>