<svg width="800" height="800" xmlns="http://www.w3.org/2000/svg"><style>
  .tile {
    fill: #eee;
    stroke: #a9a9a9;
  }
  .tile:hover {
    fill: #ff00af !important;
  }
</style><defs><linearGradient id="tileSideGradientLeft" x1="0%" x2="100%" y1="0%" y2="100%" gradientTransform="rotate(-45)"><stop class="start" offset="0%" stop-color="#7da343" stop-opacity="1"></stop><stop class="start" offset="50%" stop-color="#7da343" stop-opacity="1"></stop><stop class="start" offset="50%" stop-color="#bb8d5d" stop-opacity="1"></stop><stop class="end" offset="100%" stop-color="#bb8d5d" stop-opacity="1"></stop></linearGradient><linearGradient id="tileSideGradientRight" x1="0%" x2="100%" y1="0%" y2="100%" gradientTransform="rotate(45)"><stop class="start" offset="0%" stop-color="#7da343" stop-opacity="1"></stop><stop class="start" offset="50%" stop-color="#7da343" stop-opacity="1"></stop><stop class="start" offset="50%" stop-color="#bb8d5d" stop-opacity="1"></stop><stop class="end" offset="100%" stop-color="#bb8d5d" stop-opacity="1"></stop></linearGradient></defs><g id="map"><g id="ground" transform="translate(340, 0) rotate(45)"><g id="tile" transform="matrix(1, 0, 0, 1, 0, 0)"><rect class="tile" width="40" height="40" style="fill: #7da343; stroke-width: 0.1; stroke: rgb(255,255,255);"></rect><text x="-10" y="30" transform="rotate(-45)" fill="black" style="font-size: 10px; pointer-events: none; user-select: none;">0, 0</text></g><g id="tile" transform="matrix(1, 0, 0, 1, 40, 0)"><rect class="tile" width="40" height="40" style="fill: #7da343; stroke-width: 0.1; stroke: rgb(255,255,255);"></rect><text x="-10" y="30" transform="rotate(-45)" fill="black" style="font-size: 10px; pointer-events: none; user-select: none;">1, 0</text></g><g id="tile" transform="matrix(1, 0, 0, 1, 80, 0)"><rect class="tile" width="40" height="40" style="fill: #7da343; stroke-width: 0.1; stroke: rgb(255,255,255);"></rect><text x="-10" y="30" transform="rotate(-45)" fill="black" style="font-size: 10px; pointer-events: none; user-select: none;">2, 0</text></g><g id="tile" transform="matrix(1, 0, 0, 1, 120, 0)"><rect class="tile" width="40" height="40" style="fill: #7da343; stroke-width: 0.1; stroke: rgb(255,255,255);"></rect><text x="-10" y="30" transform="rotate(-45)" fill="black" style="font-size: 10px; pointer-events: none; user-select: none;">3, 0</text></g><g id="tile" transform="matrix(1, 0, 0, 1, 160, 0)"><rect class="tile" width="40" height="40" style="fill: #7da343; stroke-width: 0.1; stroke: rgb(255,255,255);"></rect><text x="-10" y="30" transform="rotate(-45)" fill="black" style="font-size: 10px; pointer-events: none; user-select: none;">4, 0</text></g><g id="tile" transform="matrix(1, 0, 0, 1, 200, 0)"><rect class="tile" width="40" height="40" style="fill: #7da343; stroke-width: 0.1; stroke: rgb(255,255,255);"></rect><text x="-10" y="30" transform="rotate(-45)" fill="black" style="font-size: 10px; pointer-events: none; user-select: none;">5, 0</text></g><g id="tile" transform="matrix(1, 0, 0, 1, 240, 0)"><rect class="tile" width="40" height="40" style="fill: #7da343; stroke-width: 0.1; stroke: rgb(255,255,255);"></rect><text x="-10" y="30" transform="rotate(-45)" fill="black" style="font-size: 10px; pointer-events: none; user-select: none;">6, 0</text></g><g id="tile" transform="matrix(1, 0, 0, 1, 280, 0)"><rect class="tile" width="40" height="40" style="fill: #7da343; stroke-width: 0.1; stroke: rgb(255,255,255);"></rect><text x="-10" y="30" transform="rotate(-45)" fill="black" style="font-size: 10px; pointer-events: none; user-select: none;">7, 0</text></g><g id="tile" transform="matrix(1, 0, 0, 1, 320, 0)"><rect class="tile" width="40" height="40" style="fill: #7da343; stroke-width: 0.1; stroke: rgb(255,255,255);"></rect><text x="-10" y="30" transform="rotate(-45)" fill="black" style="font-size: 10px; pointer-events: none; user-select: none;">8, 0</text></g><g id="tile" transform="matrix(1, 0, 0, 1, 360, 0)"><rect class="tile" width="40" height="40" style="fill: #7da343; stroke-width: 0.1; stroke: rgb(255,255,255);"></rect><text x="-10" y="30" transform="rotate(-45)" fill="black" style="font-size: 10px; pointer-events: none; user-select: none;">9, 0</text></g><g id="tile" transform="matrix(1, 0, 0, 1, 400, 0)"><rect class="tile" width="40" height="40" style="fill: #7da343; stroke-width: 0.1; stroke: rgb(255,255,255);"></rect><text x="-10" y="30" transform="rotate(-45)" fill="black" style="font-size: 10px; pointer-events: none; user-select: none;">10, 0</text></g><g id="tile" transform="matrix(1, 0, 0, 1, 440, 0)"><rect class="tile" width="40" height="40" style="fill: #7da343; stroke-width: 0.1; stroke: rgb(255,255,255);"></rect><text x="-10" y="30" transform="rotate(-45)" fill="black" style="font-size: 10px; pointer-events: none; user-select: none;">11, 0</text><polygon points="40 0 50 10 50 50 40 40" style="fill: url(#tileSideGradientLeft); stroke-width: 0.1; stroke: rgb(255,255,255);" gradientTransform="rotate(45)"></polygon></g><g id="tile" transform="matrix(1, 0, 0, 1, 0, 40)"><rect class="tile" width="40" height="40" style="fill: #7da343; stroke-width: 0.1; stroke: rgb(255,255,255);"></rect><text x="-10" y="30" transform="rotate(-45)" fill="black" style="font-size: 10px; pointer-events: none; user-select: none;">0, 1</text></g><g id="tile" transform="matrix(1, 0, 0, 1, 40, 40)"><rect class="tile" width="40" height="40" style="fill: #7da343; stroke-width: 0.1; stroke: rgb(255,255,255);"></rect><text x="-10" y="30" transform="rotate(-45)" fill="black" style="font-size: 10px; pointer-events: none; user-select: none;">1, 1</text></g><g id="tile" transform="matrix(1, 0, 0, 1, 80, 40)"><rect class="tile" width="40" height="40" style="fill: #7da343; stroke-width: 0.1; stroke: rgb(255,255,255);"></rect><text x="-10" y="30" transform="rotate(-45)" fill="black" style="font-size: 10px; pointer-events: none; user-select: none;">2, 1</text></g><g id="tile" transform="matrix(1, 0, 0, 1, 120, 40)"><rect class="tile" width="40" height="40" style="fill: #7da343; stroke-width: 0.1; stroke: rgb(255,255,255);"></rect><text x="-10" y="30" transform="rotate(-45)" fill="black" style="font-size: 10px; pointer-events: none; user-select: none;">3, 1</text></g><g id="tile" transform="matrix(1, 0, 0, 1, 160, 40)"><rect class="tile" width="40" height="40" style="fill: #7da343; stroke-width: 0.1; stroke: rgb(255,255,255);"></rect><text x="-10" y="30" transform="rotate(-45)" fill="black" style="font-size: 10px; pointer-events: none; user-select: none;">4, 1</text></g><g id="tile" transform="matrix(1, 0, 0, 1, 200, 40)"><rect class="tile" width="40" height="40" style="fill: #7da343; stroke-width: 0.1; stroke: rgb(255,255,255);"></rect><text x="-10" y="30" transform="rotate(-45)" fill="black" style="font-size: 10px; pointer-events: none; user-select: none;">5, 1</text></g><g id="tile" transform="matrix(1, 0, 0, 1, 240, 40)"><rect class="tile" width="40" height="40" style="fill: #7da343; stroke-width: 0.1; stroke: rgb(255,255,255);"></rect><text x="-10" y="30" transform="rotate(-45)" fill="black" style="font-size: 10px; pointer-events: none; user-select: none;">6, 1</text></g><g id="tile" transform="matrix(1, 0, 0, 1, 280, 40)"><rect class="tile" width="40" height="40" style="fill: #7da343; stroke-width: 0.1; stroke: rgb(255,255,255);"></rect><text x="-10" y="30" transform="rotate(-45)" fill="black" style="font-size: 10px; pointer-events: none; user-select: none;">7, 1</text></g><g id="tile" transform="matrix(1, 0, 0, 1, 320, 40)"><rect class="tile" width="40" height="40" style="fill: #7da343; stroke-width: 0.1; stroke: rgb(255,255,255);"></rect><text x="-10" y="30" transform="rotate(-45)" fill="black" style="font-size: 10px; pointer-events: none; user-select: none;">8, 1</text></g><g id="tile" transform="matrix(1, 0, 0, 1, 360, 40)"><rect class="tile" width="40" height="40" style="fill: #7da343; stroke-width: 0.1; stroke: rgb(255,255,255);"></rect><text x="-10" y="30" transform="rotate(-45)" fill="black" style="font-size: 10px; pointer-events: none; user-select: none;">9, 1</text></g><g id="tile" transform="matrix(1, 0, 0, 1, 400, 40)"><rect class="tile" width="40" height="40" style="fill: #7da343; stroke-width: 0.1; stroke: rgb(255,255,255);"></rect><text x="-10" y="30" transform="rotate(-45)" fill="black" style="font-size: 10px; pointer-events: none; user-select: none;">10, 1</text></g><g id="tile" transform="matrix(1, 0, 0, 1, 440, 40)"><rect class="tile" width="40" height="40" style="fill: #7da343; stroke-width: 0.1; stroke: rgb(255,255,255);"></rect><text x="-10" y="30" transform="rotate(-45)" fill="black" style="font-size: 10px; pointer-events: none; user-select: none;">11, 1</text><polygon points="40 0 50 10 50 50 40 40" style="fill: url(#tileSideGradientLeft); stroke-width: 0.1; stroke: rgb(255,255,255);" gradientTransform="rotate(45)"></polygon></g><g id="tile" transform="matrix(1, 0, 0, 1, 0, 80)"><rect class="tile" width="40" height="40" style="fill: #7da343; stroke-width: 0.1; stroke: rgb(255,255,255);"></rect><text x="-10" y="30" transform="rotate(-45)" fill="black" style="font-size: 10px; pointer-events: none; user-select: none;">0, 2</text></g><g id="tile" transform="matrix(1, 0, 0, 1, 40, 80)"><rect class="tile" width="40" height="40" style="fill: #7da343; stroke-width: 0.1; stroke: rgb(255,255,255);"></rect><text x="-10" y="30" transform="rotate(-45)" fill="black" style="font-size: 10px; pointer-events: none; user-select: none;">1, 2</text></g><g id="tile" transform="matrix(1, 0, 0, 1, 80, 80)"><rect class="tile" width="40" height="40" style="fill: #7da343; stroke-width: 0.1; stroke: rgb(255,255,255);"></rect><text x="-10" y="30" transform="rotate(-45)" fill="black" style="font-size: 10px; pointer-events: none; user-select: none;">2, 2</text></g><g id="tile" transform="matrix(1, 0, 0, 1, 120, 80)"><rect class="tile" width="40" height="40" style="fill: #7da343; stroke-width: 0.1; stroke: rgb(255,255,255);"></rect><text x="-10" y="30" transform="rotate(-45)" fill="black" style="font-size: 10px; pointer-events: none; user-select: none;">3, 2</text></g><g id="tile" transform="matrix(1, 0, 0, 1, 160, 80)"><rect class="tile" width="40" height="40" style="fill: #7da343; stroke-width: 0.1; stroke: rgb(255,255,255);"></rect><text x="-10" y="30" transform="rotate(-45)" fill="black" style="font-size: 10px; pointer-events: none; user-select: none;">4, 2</text></g><g id="tile" transform="matrix(1, 0, 0, 1, 200, 80)"><rect class="tile" width="40" height="40" style="fill: #7da343; stroke-width: 0.1; stroke: rgb(255,255,255);"></rect><text x="-10" y="30" transform="rotate(-45)" fill="black" style="font-size: 10px; pointer-events: none; user-select: none;">5, 2</text></g><g id="tile" transform="matrix(1, 0, 0, 1, 240, 80)"><rect class="tile" width="40" height="40" style="fill: #7da343; stroke-width: 0.1; stroke: rgb(255,255,255);"></rect><text x="-10" y="30" transform="rotate(-45)" fill="black" style="font-size: 10px; pointer-events: none; user-select: none;">6, 2</text></g><g id="tile" transform="matrix(1, 0, 0, 1, 280, 80)"><rect class="tile" width="40" height="40" style="fill: #7da343; stroke-width: 0.1; stroke: rgb(255,255,255);"></rect><text x="-10" y="30" transform="rotate(-45)" fill="black" style="font-size: 10px; pointer-events: none; user-select: none;">7, 2</text></g><g id="tile" transform="matrix(1, 0, 0, 1, 320, 80)"><rect class="tile" width="40" height="40" style="fill: #7da343; stroke-width: 0.1; stroke: rgb(255,255,255);"></rect><text x="-10" y="30" transform="rotate(-45)" fill="black" style="font-size: 10px; pointer-events: none; user-select: none;">8, 2</text></g><g id="tile" transform="matrix(1, 0, 0, 1, 360, 80)"><rect class="tile" width="40" height="40" style="fill: #7da343; stroke-width: 0.1; stroke: rgb(255,255,255);"></rect><text x="-10" y="30" transform="rotate(-45)" fill="black" style="font-size: 10px; pointer-events: none; user-select: none;">9, 2</text></g><g id="tile" transform="matrix(1, 0, 0, 1, 400, 80)"><rect class="tile" width="40" height="40" style="fill: #7da343; stroke-width: 0.1; stroke: rgb(255,255,255);"></rect><text x="-10" y="30" transform="rotate(-45)" fill="black" style="font-size: 10px; pointer-events: none; user-select: none;">10, 2</text></g><g id="tile" transform="matrix(1, 0, 0, 1, 440, 80)"><rect class="tile" width="40" height="40" style="fill: #7da343; stroke-width: 0.1; stroke: rgb(255,255,255);"></rect><text x="-10" y="30" transform="rotate(-45)" fill="black" style="font-size: 10px; pointer-events: none; user-select: none;">11, 2</text><polygon points="40 0 50 10 50 50 40 40" style="fill: url(#tileSideGradientLeft); stroke-width: 0.1; stroke: rgb(255,255,255);" gradientTransform="rotate(45)"></polygon></g><g id="tile" transform="matrix(1, 0, 0, 1, 0, 120)"><rect class="tile" width="40" height="40" style="fill: #7da343; stroke-width: 0.1; stroke: rgb(255,255,255);"></rect><text x="-10" y="30" transform="rotate(-45)" fill="black" style="font-size: 10px; pointer-events: none; user-select: none;">0, 3</text></g><g id="tile" transform="matrix(1, 0, 0, 1, 40, 120)"><rect class="tile" width="40" height="40" style="fill: #7da343; stroke-width: 0.1; stroke: rgb(255,255,255);"></rect><text x="-10" y="30" transform="rotate(-45)" fill="black" style="font-size: 10px; pointer-events: none; user-select: none;">1, 3</text></g><g id="tile" transform="matrix(1, 0, 0, 1, 80, 120)"><rect class="tile" width="40" height="40" style="fill: #7da343; stroke-width: 0.1; stroke: rgb(255,255,255);"></rect><text x="-10" y="30" transform="rotate(-45)" fill="black" style="font-size: 10px; pointer-events: none; user-select: none;">2, 3</text></g><g id="tile" transform="matrix(1, 0, 0, 1, 120, 120)"><rect class="tile" width="40" height="40" style="fill: #7da343; stroke-width: 0.1; stroke: rgb(255,255,255);"></rect><text x="-10" y="30" transform="rotate(-45)" fill="black" style="font-size: 10px; pointer-events: none; user-select: none;">3, 3</text></g><g id="tile" transform="matrix(1, 0, 0, 1, 160, 120)"><rect class="tile" width="40" height="40" style="fill: #7da343; stroke-width: 0.1; stroke: rgb(255,255,255);"></rect><text x="-10" y="30" transform="rotate(-45)" fill="black" style="font-size: 10px; pointer-events: none; user-select: none;">4, 3</text></g><g id="tile" transform="matrix(1, 0, 0, 1, 200, 120)"><rect class="tile" width="40" height="40" style="fill: #7da343; stroke-width: 0.1; stroke: rgb(255,255,255);"></rect><text x="-10" y="30" transform="rotate(-45)" fill="black" style="font-size: 10px; pointer-events: none; user-select: none;">5, 3</text></g><g id="tile" transform="matrix(1, 0, 0, 1, 240, 120)"><rect class="tile" width="40" height="40" style="fill: #7da343; stroke-width: 0.1; stroke: rgb(255,255,255);"></rect><text x="-10" y="30" transform="rotate(-45)" fill="black" style="font-size: 10px; pointer-events: none; user-select: none;">6, 3</text></g><g id="tile" transform="matrix(1, 0, 0, 1, 280, 120)"><rect class="tile" width="40" height="40" style="fill: #7da343; stroke-width: 0.1; stroke: rgb(255,255,255);"></rect><text x="-10" y="30" transform="rotate(-45)" fill="black" style="font-size: 10px; pointer-events: none; user-select: none;">7, 3</text></g><g id="tile" transform="matrix(1, 0, 0, 1, 320, 120)"><rect class="tile" width="40" height="40" style="fill: #7da343; stroke-width: 0.1; stroke: rgb(255,255,255);"></rect><text x="-10" y="30" transform="rotate(-45)" fill="black" style="font-size: 10px; pointer-events: none; user-select: none;">8, 3</text></g><g id="tile" transform="matrix(1, 0, 0, 1, 360, 120)"><rect class="tile" width="40" height="40" style="fill: #7da343; stroke-width: 0.1; stroke: rgb(255,255,255);"></rect><text x="-10" y="30" transform="rotate(-45)" fill="black" style="font-size: 10px; pointer-events: none; user-select: none;">9, 3</text></g><g id="tile" transform="matrix(1, 0, 0, 1, 400, 120)"><rect class="tile" width="40" height="40" style="fill: #7da343; stroke-width: 0.1; stroke: rgb(255,255,255);"></rect><text x="-10" y="30" transform="rotate(-45)" fill="black" style="font-size: 10px; pointer-events: none; user-select: none;">10, 3</text></g><g id="tile" transform="matrix(1, 0, 0, 1, 440, 120)"><rect class="tile" width="40" height="40" style="fill: #7da343; stroke-width: 0.1; stroke: rgb(255,255,255);"></rect><text x="-10" y="30" transform="rotate(-45)" fill="black" style="font-size: 10px; pointer-events: none; user-select: none;">11, 3</text><polygon points="40 0 50 10 50 50 40 40" style="fill: url(#tileSideGradientLeft); stroke-width: 0.1; stroke: rgb(255,255,255);" gradientTransform="rotate(45)"></polygon></g><g id="tile" transform="matrix(1, 0, 0, 1, 0, 160)"><rect class="tile" width="40" height="40" style="fill: #7da343; stroke-width: 0.1; stroke: rgb(255,255,255);"></rect><text x="-10" y="30" transform="rotate(-45)" fill="black" style="font-size: 10px; pointer-events: none; user-select: none;">0, 4</text></g><g id="tile" transform="matrix(1, 0, 0, 1, 40, 160)"><rect class="tile" width="40" height="40" style="fill: #7da343; stroke-width: 0.1; stroke: rgb(255,255,255);"></rect><text x="-10" y="30" transform="rotate(-45)" fill="black" style="font-size: 10px; pointer-events: none; user-select: none;">1, 4</text></g><g id="tile" transform="matrix(1, 0, 0, 1, 80, 160)"><rect class="tile" width="40" height="40" style="fill: #7da343; stroke-width: 0.1; stroke: rgb(255,255,255);"></rect><text x="-10" y="30" transform="rotate(-45)" fill="black" style="font-size: 10px; pointer-events: none; user-select: none;">2, 4</text></g><g id="tile" transform="matrix(1, 0, 0, 1, 120, 160)"><rect class="tile" width="40" height="40" style="fill: #7da343; stroke-width: 0.1; stroke: rgb(255,255,255);"></rect><text x="-10" y="30" transform="rotate(-45)" fill="black" style="font-size: 10px; pointer-events: none; user-select: none;">3, 4</text></g><g id="tile" transform="matrix(1, 0, 0, 1, 160, 160)"><rect class="tile" width="40" height="40" style="fill: #7da343; stroke-width: 0.1; stroke: rgb(255,255,255);"></rect><text x="-10" y="30" transform="rotate(-45)" fill="black" style="font-size: 10px; pointer-events: none; user-select: none;">4, 4</text></g><g id="tile" transform="matrix(1, 0, 0, 1, 200, 160)"><rect class="tile" width="40" height="40" style="fill: #7da343; stroke-width: 0.1; stroke: rgb(255,255,255);"></rect><text x="-10" y="30" transform="rotate(-45)" fill="black" style="font-size: 10px; pointer-events: none; user-select: none;">5, 4</text></g><g id="tile" transform="matrix(1, 0, 0, 1, 240, 160)"><rect class="tile" width="40" height="40" style="fill: #7da343; stroke-width: 0.1; stroke: rgb(255,255,255);"></rect><text x="-10" y="30" transform="rotate(-45)" fill="black" style="font-size: 10px; pointer-events: none; user-select: none;">6, 4</text></g><g id="tile" transform="matrix(1, 0, 0, 1, 280, 160)"><rect class="tile" width="40" height="40" style="fill: #7da343; stroke-width: 0.1; stroke: rgb(255,255,255);"></rect><text x="-10" y="30" transform="rotate(-45)" fill="black" style="font-size: 10px; pointer-events: none; user-select: none;">7, 4</text></g><g id="tile" transform="matrix(1, 0, 0, 1, 320, 160)"><rect class="tile" width="40" height="40" style="fill: #7da343; stroke-width: 0.1; stroke: rgb(255,255,255);"></rect><text x="-10" y="30" transform="rotate(-45)" fill="black" style="font-size: 10px; pointer-events: none; user-select: none;">8, 4</text></g><g id="tile" transform="matrix(1, 0, 0, 1, 360, 160)"><rect class="tile" width="40" height="40" style="fill: #7da343; stroke-width: 0.1; stroke: rgb(255,255,255);"></rect><text x="-10" y="30" transform="rotate(-45)" fill="black" style="font-size: 10px; pointer-events: none; user-select: none;">9, 4</text></g><g id="tile" transform="matrix(1, 0, 0, 1, 400, 160)"><rect class="tile" width="40" height="40" style="fill: #7da343; stroke-width: 0.1; stroke: rgb(255,255,255);"></rect><text x="-10" y="30" transform="rotate(-45)" fill="black" style="font-size: 10px; pointer-events: none; user-select: none;">10, 4</text></g><g id="tile" transform="matrix(1, 0, 0, 1, 440, 160)"><rect class="tile" width="40" height="40" style="fill: #7da343; stroke-width: 0.1; stroke: rgb(255,255,255);"></rect><text x="-10" y="30" transform="rotate(-45)" fill="black" style="font-size: 10px; pointer-events: none; user-select: none;">11, 4</text><polygon points="40 0 50 10 50 50 40 40" style="fill: url(#tileSideGradientLeft); stroke-width: 0.1; stroke: rgb(255,255,255);" gradientTransform="rotate(45)"></polygon></g><g id="tile" transform="matrix(1, 0, 0, 1, 0, 200)"><rect class="tile" width="40" height="40" style="fill: #7da343; stroke-width: 0.1; stroke: rgb(255,255,255);"></rect><text x="-10" y="30" transform="rotate(-45)" fill="black" style="font-size: 10px; pointer-events: none; user-select: none;">0, 5</text></g><g id="tile" transform="matrix(1, 0, 0, 1, 40, 200)"><rect class="tile" width="40" height="40" style="fill: #7da343; stroke-width: 0.1; stroke: rgb(255,255,255);"></rect><text x="-10" y="30" transform="rotate(-45)" fill="black" style="font-size: 10px; pointer-events: none; user-select: none;">1, 5</text></g><g id="tile" transform="matrix(1, 0, 0, 1, 80, 200)"><rect class="tile" width="40" height="40" style="fill: #7da343; stroke-width: 0.1; stroke: rgb(255,255,255);"></rect><text x="-10" y="30" transform="rotate(-45)" fill="black" style="font-size: 10px; pointer-events: none; user-select: none;">2, 5</text></g><g id="tile" transform="matrix(1, 0, 0, 1, 120, 200)"><rect class="tile" width="40" height="40" style="fill: #7da343; stroke-width: 0.1; stroke: rgb(255,255,255);"></rect><text x="-10" y="30" transform="rotate(-45)" fill="black" style="font-size: 10px; pointer-events: none; user-select: none;">3, 5</text></g><g id="tile" transform="matrix(1, 0, 0, 1, 160, 200)"><rect class="tile" width="40" height="40" style="fill: #7da343; stroke-width: 0.1; stroke: rgb(255,255,255);"></rect><text x="-10" y="30" transform="rotate(-45)" fill="black" style="font-size: 10px; pointer-events: none; user-select: none;">4, 5</text></g><g id="tile" transform="matrix(1, 0, 0, 1, 200, 200)"><rect class="tile" width="40" height="40" style="fill: #7da343; stroke-width: 0.1; stroke: rgb(255,255,255);"></rect><text x="-10" y="30" transform="rotate(-45)" fill="black" style="font-size: 10px; pointer-events: none; user-select: none;">5, 5</text></g><g id="tile" transform="matrix(1, 0, 0, 1, 240, 200)"><rect class="tile" width="40" height="40" style="fill: #7da343; stroke-width: 0.1; stroke: rgb(255,255,255);"></rect><text x="-10" y="30" transform="rotate(-45)" fill="black" style="font-size: 10px; pointer-events: none; user-select: none;">6, 5</text></g><g id="tile" transform="matrix(1, 0, 0, 1, 280, 200)"><rect class="tile" width="40" height="40" style="fill: #7da343; stroke-width: 0.1; stroke: rgb(255,255,255);"></rect><text x="-10" y="30" transform="rotate(-45)" fill="black" style="font-size: 10px; pointer-events: none; user-select: none;">7, 5</text></g><g id="tile" transform="matrix(1, 0, 0, 1, 320, 200)"><rect class="tile" width="40" height="40" style="fill: #7da343; stroke-width: 0.1; stroke: rgb(255,255,255);"></rect><text x="-10" y="30" transform="rotate(-45)" fill="black" style="font-size: 10px; pointer-events: none; user-select: none;">8, 5</text></g><g id="tile" transform="matrix(1, 0, 0, 1, 360, 200)"><rect class="tile" width="40" height="40" style="fill: #7da343; stroke-width: 0.1; stroke: rgb(255,255,255);"></rect><text x="-10" y="30" transform="rotate(-45)" fill="black" style="font-size: 10px; pointer-events: none; user-select: none;">9, 5</text></g><g id="tile" transform="matrix(1, 0, 0, 1, 400, 200)"><rect class="tile" width="40" height="40" style="fill: #7da343; stroke-width: 0.1; stroke: rgb(255,255,255);"></rect><text x="-10" y="30" transform="rotate(-45)" fill="black" style="font-size: 10px; pointer-events: none; user-select: none;">10, 5</text></g><g id="tile" transform="matrix(1, 0, 0, 1, 440, 200)"><rect class="tile" width="40" height="40" style="fill: #7da343; stroke-width: 0.1; stroke: rgb(255,255,255);"></rect><text x="-10" y="30" transform="rotate(-45)" fill="black" style="font-size: 10px; pointer-events: none; user-select: none;">11, 5</text><polygon points="40 0 50 10 50 50 40 40" style="fill: url(#tileSideGradientLeft); stroke-width: 0.1; stroke: rgb(255,255,255);" gradientTransform="rotate(45)"></polygon></g><g id="tile" transform="matrix(1, 0, 0, 1, 0, 240)"><rect class="tile" width="40" height="40" style="fill: #7da343; stroke-width: 0.1; stroke: rgb(255,255,255);"></rect><text x="-10" y="30" transform="rotate(-45)" fill="black" style="font-size: 10px; pointer-events: none; user-select: none;">0, 6</text></g><g id="tile" transform="matrix(1, 0, 0, 1, 40, 240)"><rect class="tile" width="40" height="40" style="fill: #7da343; stroke-width: 0.1; stroke: rgb(255,255,255);"></rect><text x="-10" y="30" transform="rotate(-45)" fill="black" style="font-size: 10px; pointer-events: none; user-select: none;">1, 6</text></g><g id="tile" transform="matrix(1, 0, 0, 1, 80, 240)"><rect class="tile" width="40" height="40" style="fill: #7da343; stroke-width: 0.1; stroke: rgb(255,255,255);"></rect><text x="-10" y="30" transform="rotate(-45)" fill="black" style="font-size: 10px; pointer-events: none; user-select: none;">2, 6</text></g><g id="tile" transform="matrix(1, 0, 0, 1, 120, 240)"><rect class="tile" width="40" height="40" style="fill: #7da343; stroke-width: 0.1; stroke: rgb(255,255,255);"></rect><text x="-10" y="30" transform="rotate(-45)" fill="black" style="font-size: 10px; pointer-events: none; user-select: none;">3, 6</text></g><g id="tile" transform="matrix(1, 0, 0, 1, 160, 240)"><rect class="tile" width="40" height="40" style="fill: #7da343; stroke-width: 0.1; stroke: rgb(255,255,255);"></rect><text x="-10" y="30" transform="rotate(-45)" fill="black" style="font-size: 10px; pointer-events: none; user-select: none;">4, 6</text></g><g id="tile" transform="matrix(1, 0, 0, 1, 200, 240)"><rect class="tile" width="40" height="40" style="fill: #7da343; stroke-width: 0.1; stroke: rgb(255,255,255);"></rect><text x="-10" y="30" transform="rotate(-45)" fill="black" style="font-size: 10px; pointer-events: none; user-select: none;">5, 6</text></g><g id="tile" transform="matrix(1, 0, 0, 1, 240, 240)"><rect class="tile" width="40" height="40" style="fill: #7da343; stroke-width: 0.1; stroke: rgb(255,255,255);"></rect><text x="-10" y="30" transform="rotate(-45)" fill="black" style="font-size: 10px; pointer-events: none; user-select: none;">6, 6</text></g><g id="tile" transform="matrix(1, 0, 0, 1, 280, 240)"><rect class="tile" width="40" height="40" style="fill: #7da343; stroke-width: 0.1; stroke: rgb(255,255,255);"></rect><text x="-10" y="30" transform="rotate(-45)" fill="black" style="font-size: 10px; pointer-events: none; user-select: none;">7, 6</text></g><g id="tile" transform="matrix(1, 0, 0, 1, 320, 240)"><rect class="tile" width="40" height="40" style="fill: #7da343; stroke-width: 0.1; stroke: rgb(255,255,255);"></rect><text x="-10" y="30" transform="rotate(-45)" fill="black" style="font-size: 10px; pointer-events: none; user-select: none;">8, 6</text></g><g id="tile" transform="matrix(1, 0, 0, 1, 360, 240)"><rect class="tile" width="40" height="40" style="fill: #7da343; stroke-width: 0.1; stroke: rgb(255,255,255);"></rect><text x="-10" y="30" transform="rotate(-45)" fill="black" style="font-size: 10px; pointer-events: none; user-select: none;">9, 6</text></g><g id="tile" transform="matrix(1, 0, 0, 1, 400, 240)"><rect class="tile" width="40" height="40" style="fill: #7da343; stroke-width: 0.1; stroke: rgb(255,255,255);"></rect><text x="-10" y="30" transform="rotate(-45)" fill="black" style="font-size: 10px; pointer-events: none; user-select: none;">10, 6</text></g><g id="tile" transform="matrix(1, 0, 0, 1, 440, 240)"><rect class="tile" width="40" height="40" style="fill: #7da343; stroke-width: 0.1; stroke: rgb(255,255,255);"></rect><text x="-10" y="30" transform="rotate(-45)" fill="black" style="font-size: 10px; pointer-events: none; user-select: none;">11, 6</text><polygon points="40 0 50 10 50 50 40 40" style="fill: url(#tileSideGradientLeft); stroke-width: 0.1; stroke: rgb(255,255,255);" gradientTransform="rotate(45)"></polygon></g><g id="tile" transform="matrix(1, 0, 0, 1, 0, 280)"><rect class="tile" width="40" height="40" style="fill: #7da343; stroke-width: 0.1; stroke: rgb(255,255,255);"></rect><text x="-10" y="30" transform="rotate(-45)" fill="black" style="font-size: 10px; pointer-events: none; user-select: none;">0, 7</text></g><g id="tile" transform="matrix(1, 0, 0, 1, 40, 280)"><rect class="tile" width="40" height="40" style="fill: #7da343; stroke-width: 0.1; stroke: rgb(255,255,255);"></rect><text x="-10" y="30" transform="rotate(-45)" fill="black" style="font-size: 10px; pointer-events: none; user-select: none;">1, 7</text></g><g id="tile" transform="matrix(1, 0, 0, 1, 80, 280)"><rect class="tile" width="40" height="40" style="fill: #7da343; stroke-width: 0.1; stroke: rgb(255,255,255);"></rect><text x="-10" y="30" transform="rotate(-45)" fill="black" style="font-size: 10px; pointer-events: none; user-select: none;">2, 7</text></g><g id="tile" transform="matrix(1, 0, 0, 1, 120, 280)"><rect class="tile" width="40" height="40" style="fill: #7da343; stroke-width: 0.1; stroke: rgb(255,255,255);"></rect><text x="-10" y="30" transform="rotate(-45)" fill="black" style="font-size: 10px; pointer-events: none; user-select: none;">3, 7</text></g><g id="tile" transform="matrix(1, 0, 0, 1, 160, 280)"><rect class="tile" width="40" height="40" style="fill: #7da343; stroke-width: 0.1; stroke: rgb(255,255,255);"></rect><text x="-10" y="30" transform="rotate(-45)" fill="black" style="font-size: 10px; pointer-events: none; user-select: none;">4, 7</text></g><g id="tile" transform="matrix(1, 0, 0, 1, 200, 280)"><rect class="tile" width="40" height="40" style="fill: #7da343; stroke-width: 0.1; stroke: rgb(255,255,255);"></rect><text x="-10" y="30" transform="rotate(-45)" fill="black" style="font-size: 10px; pointer-events: none; user-select: none;">5, 7</text></g><g id="tile" transform="matrix(1, 0, 0, 1, 240, 280)"><rect class="tile" width="40" height="40" style="fill: #7da343; stroke-width: 0.1; stroke: rgb(255,255,255);"></rect><text x="-10" y="30" transform="rotate(-45)" fill="black" style="font-size: 10px; pointer-events: none; user-select: none;">6, 7</text></g><g id="tile" transform="matrix(1, 0, 0, 1, 280, 280)"><rect class="tile" width="40" height="40" style="fill: #7da343; stroke-width: 0.1; stroke: rgb(255,255,255);"></rect><text x="-10" y="30" transform="rotate(-45)" fill="black" style="font-size: 10px; pointer-events: none; user-select: none;">7, 7</text></g><g id="tile" transform="matrix(1, 0, 0, 1, 320, 280)"><rect class="tile" width="40" height="40" style="fill: #7da343; stroke-width: 0.1; stroke: rgb(255,255,255);"></rect><text x="-10" y="30" transform="rotate(-45)" fill="black" style="font-size: 10px; pointer-events: none; user-select: none;">8, 7</text></g><g id="tile" transform="matrix(1, 0, 0, 1, 360, 280)"><rect class="tile" width="40" height="40" style="fill: #7da343; stroke-width: 0.1; stroke: rgb(255,255,255);"></rect><text x="-10" y="30" transform="rotate(-45)" fill="black" style="font-size: 10px; pointer-events: none; user-select: none;">9, 7</text></g><g id="tile" transform="matrix(1, 0, 0, 1, 400, 280)"><rect class="tile" width="40" height="40" style="fill: #7da343; stroke-width: 0.1; stroke: rgb(255,255,255);"></rect><text x="-10" y="30" transform="rotate(-45)" fill="black" style="font-size: 10px; pointer-events: none; user-select: none;">10, 7</text></g><g id="tile" transform="matrix(1, 0, 0, 1, 440, 280)"><rect class="tile" width="40" height="40" style="fill: #7da343; stroke-width: 0.1; stroke: rgb(255,255,255);"></rect><text x="-10" y="30" transform="rotate(-45)" fill="black" style="font-size: 10px; pointer-events: none; user-select: none;">11, 7</text><polygon points="40 0 50 10 50 50 40 40" style="fill: url(#tileSideGradientLeft); stroke-width: 0.1; stroke: rgb(255,255,255);" gradientTransform="rotate(45)"></polygon></g><g id="tile" transform="matrix(1, 0, 0, 1, 0, 320)"><rect class="tile" width="40" height="40" style="fill: #7da343; stroke-width: 0.1; stroke: rgb(255,255,255);"></rect><text x="-10" y="30" transform="rotate(-45)" fill="black" style="font-size: 10px; pointer-events: none; user-select: none;">0, 8</text></g><g id="tile" transform="matrix(1, 0, 0, 1, 40, 320)"><rect class="tile" width="40" height="40" style="fill: #7da343; stroke-width: 0.1; stroke: rgb(255,255,255);"></rect><text x="-10" y="30" transform="rotate(-45)" fill="black" style="font-size: 10px; pointer-events: none; user-select: none;">1, 8</text></g><g id="tile" transform="matrix(1, 0, 0, 1, 80, 320)"><rect class="tile" width="40" height="40" style="fill: #7da343; stroke-width: 0.1; stroke: rgb(255,255,255);"></rect><text x="-10" y="30" transform="rotate(-45)" fill="black" style="font-size: 10px; pointer-events: none; user-select: none;">2, 8</text></g><g id="tile" transform="matrix(1, 0, 0, 1, 120, 320)"><rect class="tile" width="40" height="40" style="fill: #7da343; stroke-width: 0.1; stroke: rgb(255,255,255);"></rect><text x="-10" y="30" transform="rotate(-45)" fill="black" style="font-size: 10px; pointer-events: none; user-select: none;">3, 8</text></g><g id="tile" transform="matrix(1, 0, 0, 1, 160, 320)"><rect class="tile" width="40" height="40" style="fill: #7da343; stroke-width: 0.1; stroke: rgb(255,255,255);"></rect><text x="-10" y="30" transform="rotate(-45)" fill="black" style="font-size: 10px; pointer-events: none; user-select: none;">4, 8</text></g><g id="tile" transform="matrix(1, 0, 0, 1, 200, 320)"><rect class="tile" width="40" height="40" style="fill: #7da343; stroke-width: 0.1; stroke: rgb(255,255,255);"></rect><text x="-10" y="30" transform="rotate(-45)" fill="black" style="font-size: 10px; pointer-events: none; user-select: none;">5, 8</text></g><g id="tile" transform="matrix(1, 0, 0, 1, 240, 320)"><rect class="tile" width="40" height="40" style="fill: #7da343; stroke-width: 0.1; stroke: rgb(255,255,255);"></rect><text x="-10" y="30" transform="rotate(-45)" fill="black" style="font-size: 10px; pointer-events: none; user-select: none;">6, 8</text></g><g id="tile" transform="matrix(1, 0, 0, 1, 280, 320)"><rect class="tile" width="40" height="40" style="fill: #7da343; stroke-width: 0.1; stroke: rgb(255,255,255);"></rect><text x="-10" y="30" transform="rotate(-45)" fill="black" style="font-size: 10px; pointer-events: none; user-select: none;">7, 8</text></g><g id="tile" transform="matrix(1, 0, 0, 1, 320, 320)"><rect class="tile" width="40" height="40" style="fill: #7da343; stroke-width: 0.1; stroke: rgb(255,255,255);"></rect><text x="-10" y="30" transform="rotate(-45)" fill="black" style="font-size: 10px; pointer-events: none; user-select: none;">8, 8</text></g><g id="tile" transform="matrix(1, 0, 0, 1, 360, 320)"><rect class="tile" width="40" height="40" style="fill: #7da343; stroke-width: 0.1; stroke: rgb(255,255,255);"></rect><text x="-10" y="30" transform="rotate(-45)" fill="black" style="font-size: 10px; pointer-events: none; user-select: none;">9, 8</text></g><g id="tile" transform="matrix(1, 0, 0, 1, 400, 320)"><rect class="tile" width="40" height="40" style="fill: #7da343; stroke-width: 0.1; stroke: rgb(255,255,255);"></rect><text x="-10" y="30" transform="rotate(-45)" fill="black" style="font-size: 10px; pointer-events: none; user-select: none;">10, 8</text></g><g id="tile" transform="matrix(1, 0, 0, 1, 440, 320)"><rect class="tile" width="40" height="40" style="fill: #7da343; stroke-width: 0.1; stroke: rgb(255,255,255);"></rect><text x="-10" y="30" transform="rotate(-45)" fill="black" style="font-size: 10px; pointer-events: none; user-select: none;">11, 8</text><polygon points="40 0 50 10 50 50 40 40" style="fill: url(#tileSideGradientLeft); stroke-width: 0.1; stroke: rgb(255,255,255);" gradientTransform="rotate(45)"></polygon></g><g id="tile" transform="matrix(1, 0, 0, 1, 0, 360)"><rect class="tile" width="40" height="40" style="fill: #7da343; stroke-width: 0.1; stroke: rgb(255,255,255);"></rect><text x="-10" y="30" transform="rotate(-45)" fill="black" style="font-size: 10px; pointer-events: none; user-select: none;">0, 9</text></g><g id="tile" transform="matrix(1, 0, 0, 1, 40, 360)"><rect class="tile" width="40" height="40" style="fill: #7da343; stroke-width: 0.1; stroke: rgb(255,255,255);"></rect><text x="-10" y="30" transform="rotate(-45)" fill="black" style="font-size: 10px; pointer-events: none; user-select: none;">1, 9</text></g><g id="tile" transform="matrix(1, 0, 0, 1, 80, 360)"><rect class="tile" width="40" height="40" style="fill: #7da343; stroke-width: 0.1; stroke: rgb(255,255,255);"></rect><text x="-10" y="30" transform="rotate(-45)" fill="black" style="font-size: 10px; pointer-events: none; user-select: none;">2, 9</text></g><g id="tile" transform="matrix(1, 0, 0, 1, 120, 360)"><rect class="tile" width="40" height="40" style="fill: #7da343; stroke-width: 0.1; stroke: rgb(255,255,255);"></rect><text x="-10" y="30" transform="rotate(-45)" fill="black" style="font-size: 10px; pointer-events: none; user-select: none;">3, 9</text></g><g id="tile" transform="matrix(1, 0, 0, 1, 160, 360)"><rect class="tile" width="40" height="40" style="fill: #7da343; stroke-width: 0.1; stroke: rgb(255,255,255);"></rect><text x="-10" y="30" transform="rotate(-45)" fill="black" style="font-size: 10px; pointer-events: none; user-select: none;">4, 9</text></g><g id="tile" transform="matrix(1, 0, 0, 1, 200, 360)"><rect class="tile" width="40" height="40" style="fill: #7da343; stroke-width: 0.1; stroke: rgb(255,255,255);"></rect><text x="-10" y="30" transform="rotate(-45)" fill="black" style="font-size: 10px; pointer-events: none; user-select: none;">5, 9</text></g><g id="tile" transform="matrix(1, 0, 0, 1, 240, 360)"><rect class="tile" width="40" height="40" style="fill: #7da343; stroke-width: 0.1; stroke: rgb(255,255,255);"></rect><text x="-10" y="30" transform="rotate(-45)" fill="black" style="font-size: 10px; pointer-events: none; user-select: none;">6, 9</text></g><g id="tile" transform="matrix(1, 0, 0, 1, 280, 360)"><rect class="tile" width="40" height="40" style="fill: #7da343; stroke-width: 0.1; stroke: rgb(255,255,255);"></rect><text x="-10" y="30" transform="rotate(-45)" fill="black" style="font-size: 10px; pointer-events: none; user-select: none;">7, 9</text></g><g id="tile" transform="matrix(1, 0, 0, 1, 320, 360)"><rect class="tile" width="40" height="40" style="fill: #7da343; stroke-width: 0.1; stroke: rgb(255,255,255);"></rect><text x="-10" y="30" transform="rotate(-45)" fill="black" style="font-size: 10px; pointer-events: none; user-select: none;">8, 9</text></g><g id="tile" transform="matrix(1, 0, 0, 1, 360, 360)"><rect class="tile" width="40" height="40" style="fill: #7da343; stroke-width: 0.1; stroke: rgb(255,255,255);"></rect><text x="-10" y="30" transform="rotate(-45)" fill="black" style="font-size: 10px; pointer-events: none; user-select: none;">9, 9</text></g><g id="tile" transform="matrix(1, 0, 0, 1, 400, 360)"><rect class="tile" width="40" height="40" style="fill: #7da343; stroke-width: 0.1; stroke: rgb(255,255,255);"></rect><text x="-10" y="30" transform="rotate(-45)" fill="black" style="font-size: 10px; pointer-events: none; user-select: none;">10, 9</text></g><g id="tile" transform="matrix(1, 0, 0, 1, 440, 360)"><rect class="tile" width="40" height="40" style="fill: #7da343; stroke-width: 0.1; stroke: rgb(255,255,255);"></rect><text x="-10" y="30" transform="rotate(-45)" fill="black" style="font-size: 10px; pointer-events: none; user-select: none;">11, 9</text><polygon points="40 0 50 10 50 50 40 40" style="fill: url(#tileSideGradientLeft); stroke-width: 0.1; stroke: rgb(255,255,255);" gradientTransform="rotate(45)"></polygon></g><g id="tile" transform="matrix(1, 0, 0, 1, 0, 400)"><rect class="tile" width="40" height="40" style="fill: #7da343; stroke-width: 0.1; stroke: rgb(255,255,255);"></rect><text x="-10" y="30" transform="rotate(-45)" fill="black" style="font-size: 10px; pointer-events: none; user-select: none;">0, 10</text></g><g id="tile" transform="matrix(1, 0, 0, 1, 40, 400)"><rect class="tile" width="40" height="40" style="fill: #7da343; stroke-width: 0.1; stroke: rgb(255,255,255);"></rect><text x="-10" y="30" transform="rotate(-45)" fill="black" style="font-size: 10px; pointer-events: none; user-select: none;">1, 10</text></g><g id="tile" transform="matrix(1, 0, 0, 1, 80, 400)"><rect class="tile" width="40" height="40" style="fill: #7da343; stroke-width: 0.1; stroke: rgb(255,255,255);"></rect><text x="-10" y="30" transform="rotate(-45)" fill="black" style="font-size: 10px; pointer-events: none; user-select: none;">2, 10</text></g><g id="tile" transform="matrix(1, 0, 0, 1, 120, 400)"><rect class="tile" width="40" height="40" style="fill: #7da343; stroke-width: 0.1; stroke: rgb(255,255,255);"></rect><text x="-10" y="30" transform="rotate(-45)" fill="black" style="font-size: 10px; pointer-events: none; user-select: none;">3, 10</text></g><g id="tile" transform="matrix(1, 0, 0, 1, 160, 400)"><rect class="tile" width="40" height="40" style="fill: #7da343; stroke-width: 0.1; stroke: rgb(255,255,255);"></rect><text x="-10" y="30" transform="rotate(-45)" fill="black" style="font-size: 10px; pointer-events: none; user-select: none;">4, 10</text></g><g id="tile" transform="matrix(1, 0, 0, 1, 200, 400)"><rect class="tile" width="40" height="40" style="fill: #7da343; stroke-width: 0.1; stroke: rgb(255,255,255);"></rect><text x="-10" y="30" transform="rotate(-45)" fill="black" style="font-size: 10px; pointer-events: none; user-select: none;">5, 10</text></g><g id="tile" transform="matrix(1, 0, 0, 1, 240, 400)"><rect class="tile" width="40" height="40" style="fill: #7da343; stroke-width: 0.1; stroke: rgb(255,255,255);"></rect><text x="-10" y="30" transform="rotate(-45)" fill="black" style="font-size: 10px; pointer-events: none; user-select: none;">6, 10</text></g><g id="tile" transform="matrix(1, 0, 0, 1, 280, 400)"><rect class="tile" width="40" height="40" style="fill: #7da343; stroke-width: 0.1; stroke: rgb(255,255,255);"></rect><text x="-10" y="30" transform="rotate(-45)" fill="black" style="font-size: 10px; pointer-events: none; user-select: none;">7, 10</text></g><g id="tile" transform="matrix(1, 0, 0, 1, 320, 400)"><rect class="tile" width="40" height="40" style="fill: #7da343; stroke-width: 0.1; stroke: rgb(255,255,255);"></rect><text x="-10" y="30" transform="rotate(-45)" fill="black" style="font-size: 10px; pointer-events: none; user-select: none;">8, 10</text></g><g id="tile" transform="matrix(1, 0, 0, 1, 360, 400)"><rect class="tile" width="40" height="40" style="fill: #7da343; stroke-width: 0.1; stroke: rgb(255,255,255);"></rect><text x="-10" y="30" transform="rotate(-45)" fill="black" style="font-size: 10px; pointer-events: none; user-select: none;">9, 10</text></g><g id="tile" transform="matrix(1, 0, 0, 1, 400, 400)"><rect class="tile" width="40" height="40" style="fill: #7da343; stroke-width: 0.1; stroke: rgb(255,255,255);"></rect><text x="-10" y="30" transform="rotate(-45)" fill="black" style="font-size: 10px; pointer-events: none; user-select: none;">10, 10</text></g><g id="tile" transform="matrix(1, 0, 0, 1, 440, 400)"><rect class="tile" width="40" height="40" style="fill: #7da343; stroke-width: 0.1; stroke: rgb(255,255,255);"></rect><text x="-10" y="30" transform="rotate(-45)" fill="black" style="font-size: 10px; pointer-events: none; user-select: none;">11, 10</text><polygon points="40 0 50 10 50 50 40 40" style="fill: url(#tileSideGradientLeft); stroke-width: 0.1; stroke: rgb(255,255,255);" gradientTransform="rotate(45)"></polygon></g><g id="tile" transform="matrix(1, 0, 0, 1, 0, 440)"><rect class="tile" width="40" height="40" style="fill: #7da343; stroke-width: 0.1; stroke: rgb(255,255,255);"></rect><text x="-10" y="30" transform="rotate(-45)" fill="black" style="font-size: 10px; pointer-events: none; user-select: none;">0, 11</text><polygon points="0 40 10 50 50 50 40 40" style="fill: url(#tileSideGradientRight); stroke-width: 0.1; stroke: rgb(255,255,255);"></polygon></g><g id="tile" transform="matrix(1, 0, 0, 1, 40, 440)"><rect class="tile" width="40" height="40" style="fill: #7da343; stroke-width: 0.1; stroke: rgb(255,255,255);"></rect><text x="-10" y="30" transform="rotate(-45)" fill="black" style="font-size: 10px; pointer-events: none; user-select: none;">1, 11</text><polygon points="0 40 10 50 50 50 40 40" style="fill: url(#tileSideGradientRight); stroke-width: 0.1; stroke: rgb(255,255,255);"></polygon></g><g id="tile" transform="matrix(1, 0, 0, 1, 80, 440)"><rect class="tile" width="40" height="40" style="fill: #7da343; stroke-width: 0.1; stroke: rgb(255,255,255);"></rect><text x="-10" y="30" transform="rotate(-45)" fill="black" style="font-size: 10px; pointer-events: none; user-select: none;">2, 11</text><polygon points="0 40 10 50 50 50 40 40" style="fill: url(#tileSideGradientRight); stroke-width: 0.1; stroke: rgb(255,255,255);"></polygon></g><g id="tile" transform="matrix(1, 0, 0, 1, 120, 440)"><rect class="tile" width="40" height="40" style="fill: #7da343; stroke-width: 0.1; stroke: rgb(255,255,255);"></rect><text x="-10" y="30" transform="rotate(-45)" fill="black" style="font-size: 10px; pointer-events: none; user-select: none;">3, 11</text><polygon points="0 40 10 50 50 50 40 40" style="fill: url(#tileSideGradientRight); stroke-width: 0.1; stroke: rgb(255,255,255);"></polygon></g><g id="tile" transform="matrix(1, 0, 0, 1, 160, 440)"><rect class="tile" width="40" height="40" style="fill: #7da343; stroke-width: 0.1; stroke: rgb(255,255,255);"></rect><text x="-10" y="30" transform="rotate(-45)" fill="black" style="font-size: 10px; pointer-events: none; user-select: none;">4, 11</text><polygon points="0 40 10 50 50 50 40 40" style="fill: url(#tileSideGradientRight); stroke-width: 0.1; stroke: rgb(255,255,255);"></polygon></g><g id="tile" transform="matrix(1, 0, 0, 1, 200, 440)"><rect class="tile" width="40" height="40" style="fill: #7da343; stroke-width: 0.1; stroke: rgb(255,255,255);"></rect><text x="-10" y="30" transform="rotate(-45)" fill="black" style="font-size: 10px; pointer-events: none; user-select: none;">5, 11</text><polygon points="0 40 10 50 50 50 40 40" style="fill: url(#tileSideGradientRight); stroke-width: 0.1; stroke: rgb(255,255,255);"></polygon></g><g id="tile" transform="matrix(1, 0, 0, 1, 240, 440)"><rect class="tile" width="40" height="40" style="fill: #7da343; stroke-width: 0.1; stroke: rgb(255,255,255);"></rect><text x="-10" y="30" transform="rotate(-45)" fill="black" style="font-size: 10px; pointer-events: none; user-select: none;">6, 11</text><polygon points="0 40 10 50 50 50 40 40" style="fill: url(#tileSideGradientRight); stroke-width: 0.1; stroke: rgb(255,255,255);"></polygon></g><g id="tile" transform="matrix(1, 0, 0, 1, 280, 440)"><rect class="tile" width="40" height="40" style="fill: #7da343; stroke-width: 0.1; stroke: rgb(255,255,255);"></rect><text x="-10" y="30" transform="rotate(-45)" fill="black" style="font-size: 10px; pointer-events: none; user-select: none;">7, 11</text><polygon points="0 40 10 50 50 50 40 40" style="fill: url(#tileSideGradientRight); stroke-width: 0.1; stroke: rgb(255,255,255);"></polygon></g><g id="tile" transform="matrix(1, 0, 0, 1, 320, 440)"><rect class="tile" width="40" height="40" style="fill: #7da343; stroke-width: 0.1; stroke: rgb(255,255,255);"></rect><text x="-10" y="30" transform="rotate(-45)" fill="black" style="font-size: 10px; pointer-events: none; user-select: none;">8, 11</text><polygon points="0 40 10 50 50 50 40 40" style="fill: url(#tileSideGradientRight); stroke-width: 0.1; stroke: rgb(255,255,255);"></polygon></g><g id="tile" transform="matrix(1, 0, 0, 1, 360, 440)"><rect class="tile" width="40" height="40" style="fill: #7da343; stroke-width: 0.1; stroke: rgb(255,255,255);"></rect><text x="-10" y="30" transform="rotate(-45)" fill="black" style="font-size: 10px; pointer-events: none; user-select: none;">9, 11</text><polygon points="0 40 10 50 50 50 40 40" style="fill: url(#tileSideGradientRight); stroke-width: 0.1; stroke: rgb(255,255,255);"></polygon></g><g id="tile" transform="matrix(1, 0, 0, 1, 400, 440)"><rect class="tile" width="40" height="40" style="fill: #7da343; stroke-width: 0.1; stroke: rgb(255,255,255);"></rect><text x="-10" y="30" transform="rotate(-45)" fill="black" style="font-size: 10px; pointer-events: none; user-select: none;">10, 11</text><polygon points="0 40 10 50 50 50 40 40" style="fill: url(#tileSideGradientRight); stroke-width: 0.1; stroke: rgb(255,255,255);"></polygon></g><g id="tile" transform="matrix(1, 0, 0, 1, 440, 440)"><rect class="tile" width="40" height="40" style="fill: #7da343; stroke-width: 0.1; stroke: rgb(255,255,255);"></rect><text x="-10" y="30" transform="rotate(-45)" fill="black" style="font-size: 10px; pointer-events: none; user-select: none;">11, 11</text><polygon points="40 0 50 10 50 50 40 40" style="fill: url(#tileSideGradientLeft); stroke-width: 0.1; stroke: rgb(255,255,255);" gradientTransform="rotate(45)"></polygon><polygon points="0 40 10 50 50 50 40 40" style="fill: url(#tileSideGradientRight); stroke-width: 0.1; stroke: rgb(255,255,255);"></polygon></g></g></g></svg>